<svg width="33" height="32" viewBox="0 0 33 32" fill="none" xmlns="http://www.w3.org/2000/svg">
<path d="M25.8337 10.6665L24.8337 7.6665L21.8337 6.6665L24.8337 5.6665L25.8337 2.6665L26.8337 5.6665L29.8337 6.6665L26.8337 7.6665L25.8337 10.6665Z" fill="url(#paint0_linear_2294_1881)"/>
<path d="M25.8337 13.3332L24.167 8.33317L19.167 6.6665L24.167 4.99984L24.4477 4.15783C23.9542 4.05371 23.446 3.99984 22.9318 3.99984C19.6731 3.99984 16.5119 7.83987 16.5119 7.83987C16.5119 7.83987 13.481 4.00343 10.092 3.99984C6.70291 3.99626 3.93292 5.91829 3.27082 9.56787C2.63042 13.0979 5.08309 16.7929 7.04286 19.0389L8.50033 14.6665L10.8337 21.6665L17.8337 23.9998L13.6473 25.3953C15.2475 26.861 16.5119 27.9998 16.5119 27.9998C16.5119 27.9998 23.3999 21.7918 25.3392 19.7439C27.2786 17.6959 30.373 13.4413 29.7529 9.56787C29.6495 8.92167 29.457 8.32019 29.1907 7.76973L27.5003 8.33317L25.8337 13.3332Z" fill="url(#paint1_linear_2294_1881)"/>
<path d="M7.16699 25.3332L8.50033 29.3332L9.83366 25.3332L13.8337 23.9998L9.83366 22.6665L8.50033 18.6665L7.16699 22.6665L3.16699 23.9998L7.16699 25.3332Z" fill="url(#paint2_linear_2294_1881)"/>
<defs>
<linearGradient id="paint0_linear_2294_1881" x1="16.5003" y1="2.6665" x2="16.5003" y2="29.3332" gradientUnits="userSpaceOnUse">
<stop stop-color="#FFD600"/>
<stop offset="1" stop-color="#A17810"/>
</linearGradient>
<linearGradient id="paint1_linear_2294_1881" x1="16.5003" y1="2.6665" x2="16.5003" y2="29.3332" gradientUnits="userSpaceOnUse">
<stop stop-color="#FFD600"/>
<stop offset="1" stop-color="#A17810"/>
</linearGradient>
<linearGradient id="paint2_linear_2294_1881" x1="16.5003" y1="2.6665" x2="16.5003" y2="29.3332" gradientUnits="userSpaceOnUse">
<stop stop-color="#FFD600"/>
<stop offset="1" stop-color="#A17810"/>
</linearGradient>
</defs>
</svg>
