<svg id="newNote_icon.svg" width="16" height="16" viewBox="0 0 169 168" fill="none" xmlns="http://www.w3.org/2000/svg">
<path d="M132.066 25.7338L135.263 13L125.6 14.3079L132.066 25.7338Z" fill="white"/>
<path d="M141.251 32.7555C143.427 33.1379 144.881 35.2118 144.498 37.3875L128.226 129.968C127.843 132.144 125.769 133.598 123.594 133.215L68.4391 123.521C66.2634 123.139 64.8096 121.065 65.192 118.889L81.4648 26.3082C81.8472 24.1324 83.921 22.6786 86.0968 23.0611L141.251 32.7555Z" fill="white"/>
<path d="M59.1918 122.889L73.5323 41.3022L25.4391 49.7555C23.2633 50.1379 21.8095 52.2118 22.1919 54.3875L38.4647 146.968C38.8471 149.144 40.921 150.598 43.0967 150.215L98.2512 140.521C100.427 140.139 101.881 138.065 101.498 135.889L101.226 134.339L62.4391 127.521C60.2633 127.139 58.8095 125.065 59.1919 122.889Z" fill="white"/>
<path d="M146.75 20.1433L135.359 26.6713L139.105 14.0882L146.75 20.1433Z" fill="white"/>
</svg>
